<?xml version="1.0" encoding="UTF-8" standalone="no"?>
<svg
   xmlns:dc="http://purl.org/dc/elements/1.1/"
   xmlns:cc="http://creativecommons.org/ns#"
   xmlns:rdf="http://www.w3.org/1999/02/22-rdf-syntax-ns#"
   xmlns:svg="http://www.w3.org/2000/svg"
   xmlns="http://www.w3.org/2000/svg"
   xmlns:sodipodi="http://sodipodi.sourceforge.net/DTD/sodipodi-0.dtd"
   xmlns:inkscape="http://www.inkscape.org/namespaces/inkscape"
   width="1024"
   height="1024"
   viewBox="0 0 270.93334 270.93334"
   version="1.1"
   id="svg8"
   inkscape:version="1.0.2 (e86c870879, 2021-01-15)"
   sodipodi:docname="circle.svg">
  <defs
     id="defs2" />
  <sodipodi:namedview
     id="base"
     pagecolor="#000000"
     bordercolor="#666666"
     borderopacity="1.0"
     inkscape:pageopacity="0"
     inkscape:pageshadow="2"
     inkscape:zoom="0.5"
     inkscape:cx="449.23159"
     inkscape:cy="438.8471"
     inkscape:document-units="mm"
     inkscape:current-layer="layer1"
     inkscape:document-rotation="0"
     showgrid="false"
     inkscape:window-width="1280"
     inkscape:window-height="967"
     inkscape:window-x="0"
     inkscape:window-y="33"
     inkscape:window-maximized="1"
     fit-margin-top="0"
     fit-margin-left="0"
     fit-margin-right="0"
     fit-margin-bottom="0"
     units="px">
    <inkscape:grid
       type="xygrid"
       id="grid833"
       originx="-37.313766"
       originy="-80.813767" />
  </sodipodi:namedview>
  <metadata
     id="metadata5">
    <rdf:RDF>
      <cc:Work
         rdf:about="">
        <dc:format>image/svg+xml</dc:format>
        <dc:type
           rdf:resource="http://purl.org/dc/dcmitype/StillImage" />
        <dc:title />
      </cc:Work>
    </rdf:RDF>
  </metadata>
  <g
     inkscape:label="Calque 1"
     inkscape:groupmode="layer"
     id="layer1"
     transform="translate(-37.313767,-80.813767)">
    <path
       sodipodi:type="star"
       style="fill:none;fill-opacity:1;stroke:#ffffff;stroke-width:0.497694;stroke-linecap:round;stroke-linejoin:round;stroke-miterlimit:4;stroke-dasharray:none;stroke-dashoffset:0;stroke-opacity:1"
       id="path836"
       sodipodi:sides="12"
       sodipodi:cx="105"
       sodipodi:cy="148.5"
       sodipodi:r1="7.9320049"
       sodipodi:r2="63.456039"
       sodipodi:arg1="1.0471976"
       sodipodi:arg2="1.308997"
       inkscape:flatsided="false"
       inkscape:rounded="0.5"
       inkscape:randomized="0"
       inkscape:transform-center-x="-1.254361e-06"
       transform="matrix(1.0270072,0.27518571,-0.27518571,1.0270072,105.80976,34.875365)"
       d="m 108.966,155.36932 c -24.175993,13.95801 39.42245,47.19931 12.45763,54.42451 -26.964821,7.2252 11.4924,-53.36182 -16.42363,-53.36183 -27.916034,0 10.54118,60.58703 -16.423635,53.36183 C 61.611547,202.56862 125.20999,169.32734 101.034,155.36932 76.858004,141.4113 79.869417,213.10981 60.129801,193.37019 40.390186,173.63058 112.0887,176.642 98.130682,152.466 c -13.958015,-24.17599 -47.19931,39.42245 -54.42451,12.45763 -7.2252,-26.96482 53.361821,11.4924 53.361823,-16.42363 2e-6,-27.91603 -60.587024,10.54118 -53.361821,-16.42364 7.225202,-26.96481 40.46649,36.63363 54.424508,12.45764 C 112.0887,120.358 40.390189,123.36942 60.129807,103.6298 79.869425,83.890186 76.858003,155.5887 101.034,141.63068 125.20999,127.67267 61.611554,94.431372 88.576372,87.206172 115.54119,79.980972 77.083967,140.56799 105,140.568 c 27.91603,0 -10.541182,-60.587029 16.42364,-53.361826 26.96481,7.225202 -36.633631,40.466486 -12.45764,54.424506 24.176,13.95802 21.16458,-57.740491 40.9042,-38.00087 19.73961,19.73961 -51.958897,16.72819 -38.00088,40.90419 13.95801,24.17599 47.19931,-39.42245 54.42451,-12.45763 7.2252,26.96482 -53.36182,-11.4924 -53.36183,16.42363 0,27.91603 60.58703,-10.54118 53.36183,16.42364 -7.22521,26.96481 -40.46649,-36.63363 -54.42451,-12.45764 -13.958021,24.176 57.74049,21.16458 38.00087,40.9042 C 130.13058,213.10981 133.142,141.4113 108.966,155.36932 Z"
       inkscape:transform-center-y="7.3547416e-06" />
  </g>
</svg>
